# xmcd
# Copyright (C) 1995-1998 Ti Kan
#
# Track frame offsets:
#       150
#       91557
#       157152
#       223864
#
# Disc length: 3625 seconds
#
# Revision: 0
# Processed by: cddbd v1.5.2PL0 Copyright (c) Steve Scherf et al.
# Submitted via: CD-Transfer v1.0
#
DISCID=2e0e2704
DTITLE=Michael Friedel - 
DYEAR=1900
DGENRE=
TTITLE0=Hitclub 19.09.10 - 001
TTITLE1=Hitclub 19.09.10 - 002
TTITLE2=Hitclub 19.09.10 - 003
TTITLE3=Hitclub 19.09.10 - 004
EXTD=
EXTT0=
EXTT1=
EXTT2=
EXTT3=
PLAYORDER=
